<?xml version="1.0" standalone="no"?>
<!DOCTYPE svg PUBLIC "-//W3C//DTD SVG 20010904//EN"
 "http://www.w3.org/TR/2001/REC-SVG-20010904/DTD/svg10.dtd">
<svg version="1.0" xmlns="http://www.w3.org/2000/svg"
 width="1024.000000pt" height="1024.000000pt" viewBox="0 0 1024.000000 1024.000000"
 preserveAspectRatio="xMidYMid meet">

<g transform="translate(0.000000,1024.000000) scale(0.100000,-0.100000)"
fill="#000000" stroke="none">
<path d="M7120 9329 c-103 -63 -241 -183 -310 -270 -118 -150 -160 -321 -134
-553 7 -55 5 -61 -18 -80 -14 -12 -69 -56 -121 -99 l-96 -79 -101 67 c-163
107 -355 197 -503 234 -59 15 -81 27 -127 68 -95 85 -181 143 -295 199 -124
60 -221 88 -375 109 -135 19 -208 19 -339 0 -275 -40 -481 -135 -667 -308 -50
-46 -76 -62 -140 -83 -265 -88 -516 -250 -705 -455 -52 -55 -145 -156 -208
-223 -339 -363 -526 -684 -646 -1114 l-18 -62 -107 0 c-190 0 -323 -49 -448
-166 -82 -76 -128 -150 -159 -256 -22 -76 -23 -95 -23 -397 0 -343 6 -400 50
-497 68 -152 195 -272 347 -331 58 -22 88 -27 200 -31 l131 -4 7 -27 c11 -46
83 -218 131 -314 156 -311 401 -590 694 -792 40 -28 48 -36 28 -31 -61 14
-223 26 -371 26 -269 0 -512 -47 -692 -135 -107 -52 -181 -115 -231 -195 -27
-44 -44 -61 -66 -65 -16 -4 -57 -18 -90 -32 -275 -111 -403 -356 -353 -670 44
-276 183 -487 390 -591 74 -37 186 -72 230 -72 43 0 65 -9 65 -26 0 -44 47
-131 103 -190 102 -109 262 -182 482 -219 55 -9 102 -18 104 -21 2 -2 -2 -30
-9 -63 -34 -161 9 -302 129 -422 70 -69 135 -106 231 -130 78 -20 3606 -19
3690 0 187 44 336 193 371 374 14 67 3 149 -38 295 -14 51 -24 95 -21 97 3 3
36 -2 74 -11 39 -9 112 -16 168 -17 l99 0 31 -45 c87 -126 145 -190 197 -216
65 -32 146 -35 217 -8 237 91 566 497 716 885 105 270 110 410 19 516 -50 59
-100 71 -297 71 l-161 0 -51 73 c-28 39 -111 164 -184 277 -243 375 -473 723
-568 862 -79 116 -101 141 -138 159 -28 13 -41 25 -37 32 10 17 400 565 427
600 11 15 36 20 128 27 185 14 292 63 411 190 73 76 139 196 157 284 7 37 10
169 8 403 -3 321 -5 352 -24 404 -46 128 -132 236 -244 308 -95 62 -170 81
-335 88 l-141 6 -17 61 c-62 211 -187 490 -298 663 -98 152 -233 325 -346 443
-57 59 -103 110 -103 112 0 2 57 56 128 119 l127 116 90 6 c170 12 284 57 402
157 79 67 127 126 202 248 96 156 106 187 75 213 -14 11 -69 13 -284 10 -253
-3 -268 -2 -274 16 -5 18 -29 238 -42 385 -9 110 -38 137 -104 97z m-62 -514
l1 -90 -55 -45 c-30 -25 -73 -62 -94 -82 -22 -21 -41 -38 -43 -38 -12 0 -15
81 -7 149 13 99 62 200 132 271 l53 54 6 -64 c4 -36 7 -105 7 -155z m-2038
-80 c99 -17 244 -61 308 -94 l37 -20 -45 -2 c-25 -1 -48 -1 -52 0 -3 0 -26 2
-50 3 -23 2 -45 6 -48 9 -3 3 -23 9 -45 13 -38 7 -36 5 22 -23 225 -108 386
-304 401 -486 4 -51 0 -69 -21 -110 -54 -106 -141 -144 -205 -90 -37 31 -43
63 -26 129 43 159 -12 311 -143 394 -173 110 -427 45 -499 -127 -47 -112 -36
-211 31 -278 52 -52 100 -59 140 -18 39 38 37 76 -6 120 -59 62 -28 154 66
196 76 35 153 20 213 -42 51 -52 58 -92 39 -207 -22 -122 -21 -167 2 -217 60
-131 193 -185 342 -138 49 15 70 33 211 177 177 181 207 227 215 330 l6 64 59
-24 c60 -23 231 -119 276 -154 l23 -19 -143 -113 c-79 -63 -221 -174 -316
-247 -95 -74 -185 -149 -200 -168 -102 -132 -129 -164 -179 -215 l-56 -58
-162 0 -162 0 -35 33 c-20 17 -154 163 -297 324 -144 160 -271 295 -282 298
-77 25 -163 -61 -128 -127 11 -22 96 -120 219 -253 30 -33 80 -88 110 -121 30
-33 74 -81 98 -107 l42 -46 -240 -3 -240 -3 -5 45 c-21 168 -39 223 -96 306
-91 133 -201 197 -369 214 -160 17 -289 -27 -400 -137 -64 -65 -130 -170 -130
-209 0 -23 -12 -15 -70 48 -58 65 -58 58 -3 193 94 225 380 462 664 550 67 21
49 33 193 -130 130 -147 152 -165 196 -165 20 0 45 7 57 15 26 18 47 77 38
106 -4 12 -44 62 -89 113 -45 50 -98 111 -119 135 l-37 45 42 44 c92 95 239
174 402 217 174 47 291 55 446 30z m2520 -83 c0 -5 -16 -27 -36 -51 l-37 -42
-81 6 c-44 3 -110 8 -145 11 l-64 6 35 33 c38 37 38 37 236 43 50 2 92 -1 92
-6z m-259 -137 c133 -8 138 -10 106 -35 -55 -43 -150 -78 -217 -81 -172 -6
-184 3 -105 76 48 44 65 54 86 51 14 -3 73 -8 130 -11z m-473 -248 c9 -10 -23
-48 -136 -165 -81 -83 -192 -192 -247 -243 -55 -50 -104 -104 -110 -120 -5
-15 -38 -52 -72 -81 -34 -29 -103 -90 -154 -135 -107 -95 -171 -129 -271 -143
-77 -11 -126 -38 -91 -51 12 -4 4 -8 -24 -10 -24 -3 -43 -2 -43 2 0 4 19 33
43 65 23 33 50 71 60 86 9 15 43 48 75 73 31 24 127 100 213 167 85 68 202
159 258 203 57 44 158 123 225 175 266 210 254 202 274 177z m-2944 -571 c100
-30 177 -110 215 -223 12 -34 21 -83 21 -108 l0 -45 -248 0 c-227 0 -254 2
-311 21 l-63 22 4 71 c4 93 36 157 103 208 82 62 186 82 279 54z m-802 -231
c154 -186 287 -278 474 -325 77 -20 106 -20 1459 -20 l1380 1 65 -22 c153 -50
316 -155 450 -289 177 -177 266 -337 343 -615 20 -72 22 -103 21 -315 0 -203
-3 -248 -22 -332 -25 -114 -42 -150 -132 -280 l-67 -97 -6 492 c-8 528 -11
563 -63 693 -83 209 -230 367 -439 472 -164 83 -39 77 -1580 77 l-1370 0 -75
-23 c-289 -91 -517 -321 -597 -603 -17 -59 -18 -117 -18 -734 l0 -670 23 -75
c112 -357 418 -632 792 -713 91 -20 128 -21 858 -21 419 -1 761 -3 759 -6 -1
-3 -13 -27 -25 -53 l-23 -49 -757 4 -757 4 -100 27 c-55 15 -143 44 -195 64
-150 56 -408 188 -488 248 -40 30 -70 49 -66 42 13 -22 -80 85 -123 141 -146
194 -287 515 -327 748 -23 130 -23 988 0 1143 61 415 230 819 470 1120 27 33
52 60 55 58 3 -1 40 -42 81 -92z m3648 -139 c0 -2 -8 -10 -17 -17 -16 -13 -17
-12 -4 4 13 16 21 21 21 13z m-414 -621 c194 -45 367 -186 459 -372 72 -146
70 -127 70 -823 l0 -625 -80 -105 c-44 -58 -115 -154 -158 -212 -73 -99 -81
-106 -120 -112 -23 -4 -251 -49 -507 -101 l-465 -95 -805 1 c-866 0 -929 3
-1062 52 -124 45 -216 105 -318 207 -78 77 -104 112 -142 185 -25 50 -57 124
-70 165 l-23 75 0 595 c0 661 0 659 66 797 88 184 249 316 443 364 66 16 168
17 1361 18 1094 1 1299 -1 1351 -14z m-4040 -267 c-21 -126 -24 -238 -23 -710
2 -509 2 -517 -18 -522 -60 -17 -190 16 -262 65 -53 37 -106 101 -135 165 -22
47 -23 60 -26 391 -3 379 0 408 60 498 67 101 179 153 332 154 l79 1 -7 -42z
m5581 27 c70 -21 140 -70 185 -130 35 -46 38 -55 38 -116 0 -113 -41 -176
-135 -205 l-50 -16 3 -114 c3 -103 2 -117 -18 -149 -24 -40 -66 -65 -105 -65
-34 0 -82 25 -95 49 -6 12 -10 136 -10 323 0 167 -5 323 -10 348 -19 92 -20
90 68 90 43 0 101 -7 129 -15z m-429 -1190 c63 -33 127 -89 118 -104 -4 -6
-11 -9 -16 -6 -5 3 -14 -4 -20 -15 -6 -11 -9 -20 -6 -20 2 0 -9 -13 -26 -30
-16 -16 -33 -30 -37 -30 -16 0 -166 102 -163 111 5 20 83 119 93 119 5 0 31
-11 57 -25z m-179 -294 c47 -32 59 -45 57 -65 0 -13 -5 -22 -10 -18 -5 3 -7
-2 -3 -11 4 -10 2 -16 -5 -14 -6 1 -39 -40 -75 -92 -35 -52 -73 -106 -84 -120
-11 -14 -41 -56 -67 -93 -175 -247 -332 -466 -437 -608 -67 -91 -164 -225
-215 -297 l-95 -133 -51 0 c-28 0 -80 -3 -115 -7 -63 -6 -64 -6 -49 15 8 12
76 106 150 209 74 103 198 278 276 388 77 110 221 313 319 450 98 138 210 294
248 348 46 64 74 96 84 93 7 -3 40 -23 72 -45z m-1006 -939 c-77 -103 -156
-211 -177 -239 -21 -29 -41 -53 -44 -53 -4 0 -22 9 -40 20 -39 24 -95 26 -117
4 -40 -40 -47 -63 -52 -178 l-6 -116 -42 -25 c-56 -32 -136 -121 -165 -182
-16 -34 -24 -73 -28 -136 l-5 -87 -37 -11 c-30 -9 -43 -8 -68 5 -59 31 -66 59
-59 256 7 223 41 525 68 613 26 83 79 146 147 175 27 12 203 51 393 87 189 36
349 67 354 69 29 9 5 -31 -122 -202z m1014 -30 c83 -125 213 -321 289 -437
341 -520 482 -731 500 -747 36 -31 79 -39 244 -45 148 -5 167 -8 188 -26 28
-26 29 -68 1 -167 -41 -151 -142 -354 -257 -520 -74 -106 -270 -314 -340 -360
-57 -38 -88 -38 -135 1 -39 32 -127 148 -127 168 0 6 46 56 101 112 56 55 99
102 96 105 -3 3 -36 -10 -73 -29 -172 -86 -331 -120 -463 -98 -224 37 -393
204 -450 446 -37 154 -85 231 -204 327 -130 106 -382 177 -631 178 -100 1
-177 45 -218 124 -16 31 -19 53 -16 101 8 127 82 182 266 196 312 24 506 -3
877 -120 89 -28 179 -51 203 -51 l43 0 -30 44 c-45 65 -144 150 -211 182 -51
24 -62 34 -75 69 -33 92 -47 155 -52 246 l-6 95 79 110 c43 60 92 127 109 150
16 22 51 71 77 107 27 37 51 67 55 67 5 0 76 -102 160 -228z m-4122 -357 c215
-33 392 -102 465 -181 62 -67 53 -103 -35 -153 l-55 -31 -63 31 c-87 45 -183
76 -311 101 -155 31 -411 31 -576 0 -139 -26 -298 -76 -347 -109 -35 -24 -37
-24 -73 -8 -45 20 -86 57 -95 84 -12 38 29 92 110 145 93 59 311 118 505 136
127 11 352 5 475 -15z m915 -136 c58 -11 115 -27 127 -35 28 -18 153 -123 221
-185 l53 -49 -316 0 -316 0 7 38 c4 20 8 66 8 102 0 60 -16 110 -61 191 -2 3
36 -5 84 -18 48 -13 135 -33 193 -44z m-2184 -286 c6 -42 5 -48 -17 -62 -104
-68 -150 -150 -157 -281 -10 -211 92 -393 267 -477 57 -27 60 -30 70 -77 6
-27 9 -51 7 -54 -9 -8 -97 18 -150 45 -204 103 -320 309 -319 568 0 126 23
192 95 270 45 50 149 114 185 115 6 0 15 -21 19 -47z m464 -138 c174 -46 287
-59 515 -57 164 0 236 5 329 21 132 23 292 73 386 121 34 17 63 30 64 28 2 -2
-8 -57 -21 -123 -25 -130 -123 -635 -171 -884 -34 -171 -42 -187 -120 -242
-106 -75 -319 -117 -532 -106 -239 13 -441 90 -491 187 -10 20 -44 179 -79
370 -59 327 -136 734 -146 776 -5 18 4 16 83 -23 48 -23 131 -54 183 -68z
m2901 -75 c23 -54 95 -126 136 -136 29 -8 29 -17 -1 -57 -13 -18 -29 -50 -35
-72 -24 -87 -121 -536 -121 -559 0 -25 24 -46 53 -46 14 0 265 149 381 225
l58 39 46 -54 c80 -96 128 -137 198 -171 63 -31 77 -34 159 -34 68 0 101 5
134 19 34 16 46 17 59 8 50 -35 122 -73 157 -83 38 -11 165 -16 193 -8 10 3
28 -54 67 -216 30 -121 54 -232 55 -246 0 -14 -9 -35 -20 -47 l-21 -22 -1757
0 c-1961 0 -1791 -7 -1812 72 -13 47 -11 50 50 67 164 47 319 163 365 275 15
36 48 194 134 641 43 226 81 433 81 447 0 4 319 8 710 8 l709 0 22 -50z
m-3286 -228 c15 -84 25 -156 22 -158 -9 -10 -55 79 -72 140 -17 58 -16 145 1
191 7 18 8 18 15 -1 4 -10 20 -88 34 -172z m3805 8 c19 -13 37 -25 39 -27 8
-6 -21 -32 -32 -28 -7 3 -20 -7 -30 -20 -16 -23 -16 -24 -1 -18 12 4 15 3 10
-5 -4 -7 -12 -12 -18 -12 -15 0 -58 40 -58 54 0 6 5 4 11 -4 9 -13 10 -13 6 0
-2 8 -8 15 -13 16 -14 1 -84 34 -84 39 0 2 14 25 32 50 l32 45 35 -33 c20 -19
52 -44 71 -57z m369 -84 c21 -16 88 -161 96 -205 7 -45 -8 -110 -33 -141 -22
-27 -83 -41 -129 -28 -42 11 -110 72 -165 146 l-39 53 76 94 c42 52 82 96 88
98 19 7 91 -5 106 -17z m-530 -152 c25 -9 24 -11 -54 -67 -85 -60 -101 -67
-90 -39 3 9 9 56 12 104 l6 87 41 9 41 8 9 -47 c7 -37 13 -48 35 -55z m871 46
c63 -32 132 -101 155 -156 8 -20 18 -60 21 -89 6 -47 4 -54 -17 -69 -27 -19
-119 -22 -152 -5 -12 6 -34 23 -49 37 -26 24 -27 28 -21 96 5 66 -7 143 -33
210 -6 16 -4 17 17 11 13 -4 49 -20 79 -35z m-3479 -1025 c30 -98 96 -162 203
-198 44 -15 113 -17 597 -17 l547 0 53 27 53 26 551 -2 550 -2 51 -24 51 -25
526 0 527 0 67 27 c46 18 83 42 116 75 26 26 47 46 47 45 0 -23 -32 -172 -40
-186 -6 -12 -32 -27 -63 -36 -45 -13 -153 -15 -819 -15 l-768 1 0 23 c0 13 -9
31 -21 42 -19 17 -40 18 -260 19 l-241 0 -19 -24 c-10 -13 -19 -32 -19 -42 0
-18 -24 -19 -722 -20 -398 0 -762 -1 -809 -1 -195 0 -274 108 -230 315 11 50
16 58 33 55 15 -2 25 -18 39 -63z"/>
<path d="M3925 6295 c-86 -26 -136 -57 -197 -122 -133 -143 -167 -369 -80
-539 87 -170 253 -264 446 -251 141 9 256 72 341 189 135 183 106 464 -63 619
-68 63 -134 96 -224 115 -88 18 -135 16 -223 -11z m42 -180 c32 -36 31 -94 -2
-129 -35 -38 -101 -37 -139 3 -41 43 -39 95 4 134 28 25 39 28 74 24 27 -4 49
-15 63 -32z"/>
<path d="M5825 6310 c-205 -32 -354 -185 -387 -397 -52 -330 251 -602 577
-518 86 23 149 61 212 129 104 112 149 256 124 396 -24 131 -108 260 -215 327
-84 54 -211 79 -311 63z m275 -175 c38 -20 57 -74 40 -116 -28 -66 -110 -81
-161 -30 -81 82 17 200 121 146z"/>
<path d="M4531 4847 c-87 -51 -57 -158 66 -240 133 -87 278 -125 428 -113 111
9 157 22 253 68 101 49 177 115 193 167 25 85 -58 159 -134 119 -12 -6 -45
-32 -73 -58 -66 -59 -145 -90 -249 -97 -139 -9 -248 26 -342 111 -57 52 -102
65 -142 43z"/>
<path d="M4153 2835 c-28 -12 -53 -50 -53 -81 0 -29 47 -64 85 -64 43 0 85 36
85 73 0 32 -33 73 -64 79 -13 3 -37 -1 -53 -7z"/>
<path d="M4360 2740 l0 -30 435 0 435 0 0 30 0 30 -435 0 -435 0 0 -30z"/>
<path d="M4125 2595 c-66 -65 18 -155 103 -111 47 24 55 66 21 110 -28 36 -89
37 -124 1z"/>
<path d="M4360 2500 l0 -30 355 0 355 0 0 30 0 30 -355 0 -355 0 0 -30z"/>
<path d="M4126 2379 c-54 -42 -18 -129 53 -129 79 0 116 66 70 124 -26 33 -84
36 -123 5z"/>
<path d="M4360 2270 l0 -30 355 0 355 0 0 30 0 30 -355 0 -355 0 0 -30z"/>
<path d="M4131 2154 c-46 -38 -41 -93 10 -119 40 -21 63 -19 98 11 40 33 40
66 2 105 -36 36 -70 37 -110 3z"/>
<path d="M4360 2040 l0 -30 758 2 757 3 0 25 0 25 -757 3 -758 2 0 -30z"/>
<path d="M4148 1945 c-53 -30 -62 -78 -22 -119 36 -35 77 -34 115 3 35 35 37
61 7 95 -29 32 -66 40 -100 21z"/>
<path d="M4360 1795 l0 -35 758 2 757 3 0 26 0 26 -757 7 -758 6 0 -35z"/>
<path d="M2295 9104 c-140 -30 -229 -77 -326 -174 -129 -129 -186 -282 -175
-470 5 -91 17 -145 49 -219 14 -33 13 -38 -34 -152 -52 -125 -58 -161 -34
-196 26 -37 63 -36 234 2 l161 36 63 -20 c155 -48 313 -34 466 41 294 143 415
521 264 827 -72 145 -226 271 -386 312 -66 18 -224 25 -282 13z m188 -184
c236 -38 401 -281 347 -511 -28 -120 -123 -245 -225 -294 -108 -53 -256 -57
-350 -9 l-51 25 -92 -26 c-51 -15 -97 -25 -102 -23 -5 2 6 37 24 78 l33 75
-41 80 c-41 80 -41 81 -41 190 0 105 2 114 33 178 72 146 212 235 387 246 11
0 46 -3 78 -9z"/>
<path d="M2325 8718 c-77 -28 -138 -99 -155 -184 -30 -144 84 -284 232 -284
108 0 190 50 231 140 54 121 -7 275 -130 327 -38 15 -135 16 -178 1z m132
-180 c13 -12 23 -32 23 -45 0 -30 -42 -73 -70 -73 -11 0 -32 11 -45 25 -66 66
24 157 92 93z"/>
<path d="M7565 7830 c-26 -51 -77 -102 -147 -147 -38 -23 -68 -45 -68 -48 0
-2 26 -21 58 -41 76 -48 118 -89 149 -146 15 -28 33 -48 43 -48 10 0 28 20 43
49 33 59 89 111 157 146 27 14 50 29 50 34 0 5 -24 23 -54 40 -56 33 -130 106
-158 159 -22 41 -52 42 -73 2z"/>
<path d="M2141 7574 c-28 -52 -91 -111 -150 -139 -56 -27 -58 -41 -8 -66 69
-35 115 -77 150 -137 45 -77 65 -79 105 -9 30 53 88 105 160 141 17 9 32 22
32 30 0 7 -22 23 -50 36 -61 29 -122 88 -149 146 -29 61 -57 60 -90 -2z"/>
</g>
</svg>
